#!OML:ASF X:\für Bonn\!DataBase\2005_08_10_Bjorn_Final\c3d\bjorn.ASF
:FULLY-SPECIFIED
:DEGREES
140
root 0.857983 15.2817 3.79095 -171.187 0.308142 -180.91
lowerback 23.7899 -2.94245 6.28607
upperback 13.9478 1.10203 -1.03949
thorax 2.21493 2.47635 -4.86706
lowerneck -19.4229 -0.675495 1.99576
upperneck 4.67827 -1.44708 -1.70665
head 4.46326 -0.88102 -0.994263
rclavicle 1.82882e-014 7.15625e-015
rhumerus 78.6541 -3.06039 -58.8002
rradius 18.7219
rwrist 28.9291
rhand -13.1613 11.4391
rfingers 7.12502
rthumb 12.9377 -18.1398
lclavicle 1.82882e-014 7.15625e-015
lhumerus 82.385 -4.5701 61.1516
lradius 11.3351
lwrist -38.2523
lhand -32.0868 -8.69343
lfingers 7.12502
lthumb -5.33255 21.2195
rfemur -59.1805 -11.5792 16.447
rtibia 93.3954
rfoot -31.0744 14.2348
rtoes -29.6603
lfemur -61.9212 1.51432 -22.2849
ltibia 98.3541
lfoot -20.423 -2.93961
ltoes -27.5065
141
root 0.860238 15.5115 3.75678 -171.149 0.218271 -180.892
lowerback 23.3117 -2.87979 6.36544
upperback 13.8603 1.0946 -0.97911
thorax 2.34561 2.44928 -4.83264
lowerneck -19.6062 -0.701221 2.02272
upperneck 4.96214 -1.46799 -1.82969
head 4.57895 -0.895162 -1.04235
rclavicle -6.36111e-015 -3.97569e-015
rhumerus 78.5575 -2.94101 -58.5963
rradius 18.6392
rwrist 28.5038
rhand -12.9445 11.3697
rfingers 7.12502
rthumb 13.1467 -18.1958
lclavicle -6.36111e-015 -3.97569e-015
lhumerus 82.2898 -4.66214 61.4599
lradius 11.2687
lwrist -38.7489
lhand -31.9556 -8.54526
lfingers 7.12502
lthumb -5.20585 21.3708
rfemur -57.5866 -11.2353 16.4829
rtibia 90.978
rfoot -30.778 13.8408
rtoes -29.4354
lfemur -60.4247 1.50669 -22.2188
ltibia 96.0442
lfoot -20.1489 -2.89231
ltoes -27.7025
142
root 0.863079 15.7399 3.72025 -171.117 0.133846 -180.91
lowerback 22.7931 -2.80567 6.40091
upperback 13.7782 1.08912 -0.926285
thorax 2.50306 2.42145 -4.78058
lowerneck -19.7804 -0.734519 2.03399
upperneck 5.23684 -1.49588 -1.94373
head 4.69055 -0.912903 -1.08585
rclavicle -6.36111e-015 1.23246e-014
rhumerus 78.4817 -2.84851 -58.5319
rradius 18.5179
rwrist 28.2989
rhand -12.7356 11.4032
rfingers 7.12502
rthumb 13.3481 -18.1492
lclavicle -6.36111e-015 1.23246e-014
lhumerus 82.1419 -4.75343 61.9467
lradius 11.2299
lwrist -39.4439
lhand -31.7981 -8.40641
lfingers 7.12502
lthumb -5.05378 21.5133
rfemur -55.9754 -10.9141 16.4714
rtibia 88.517
rfoot -30.3839 13.5402
rtoes -28.8994
lfemur -58.8878 1.52243 -22.1991
ltibia 93.672
lfoot -19.8857 -2.9336
ltoes -27.5811
143
root 0.865715 15.9685 3.68072 -171.097 0.0371276 -180.909
lowerback 22.2467 1.34377 8.11502
upperback 13.7374 -0.142869 -0.0718868
thorax 2.93311 -0.864725 -4.70371
lowerneck -19.8597 -0.769157 2.03288
upperneck 5.45909 -1.51891 -2.07485
head 4.77139 -0.92983 -1.13134
rclavicle 2.70347e-014 6.75868e-015
rhumerus 78.3928 -2.74558 -58.3993
rradius 18.429
rwrist 28.2235
rhand -12.6076 11.386
rfingers 7.12502
rthumb 13.4714 -18.1583
lclavicle 2.70347e-014 6.75868e-015
lhumerus 81.9695 -4.83001 62.5879
lradius 11.2315
lwrist -40.261
lhand -31.552 -8.32037
lfingers 7.12502
lthumb -4.81613 21.6049
rfemur -54.3171 -10.6336 16.4844
rtibia 86.0016
rfoot -29.9788 13.2214
rtoes -28.475
lfemur -57.312 1.54807 -22.1516
ltibia 91.2503
lfoot -19.6266 -3.0262
ltoes -27.4229
144
root 0.868385 16.1964 3.6381 -171.077 -0.0494275 -180.912
lowerback 21.7404 1.32695 8.12003
upperback 13.6244 -0.120562 -0.0689299
thorax 3.0518 -0.820875 -4.70662
lowerneck -19.9092 -0.805756 2.08984
upperneck 5.66535 -1.56015 -2.18411
head 4.84198 -0.9526 -1.18063
rclavicle 2.06736e-014 2.06736e-014
rhumerus 78.3073 -2.66557 -58.5612
rradius 18.2771
rwrist 28.4553
rhand -12.4993 11.4189
rfingers 7.12502
rthumb 13.5758 -18.1185
lclavicle 2.06736e-014 2.06736e-014
lhumerus 81.7992 -4.91865 63.072
lradius 11.247
lwrist -40.9478
lhand -31.2042 -8.28512
lfingers 7.12502
lthumb -4.48032 21.6475
rfemur -52.6561 -10.3639 16.4936
rtibia 83.4552
rfoot -29.5489 12.8666
rtoes -28.1877
lfemur -55.6994 1.59309 -22.1051
ltibia 88.769
lfoot -19.3522 -3.18509
ltoes -26.881
145
root 0.871048 16.4215 3.59236 -171.056 -0.126621 -180.911
lowerback 21.1965 1.31224 8.1264
upperback 13.5257 -0.103204 -0.0697456
thorax 3.2067 -0.778662 -4.71375
lowerneck -20.0098 -0.816753 2.1595
upperneck 5.90128 -1.57251 -2.2798
head 4.93047 -0.96021 -1.22575
rclavicle 0 -2.46493e-014
rhumerus 78.2556 -2.61476 -58.9438
rradius 18.141
rwrist 29.0528
rhand -12.4176 11.4992
rfingers 7.12502
rthumb 13.6546 -18.0329
lclavicle 0 -2.46493e-014
lhumerus 81.6969 -4.97399 63.3372
lradius 11.2598
lwrist -41.4151
lhand -30.85 -8.22195
lfingers 7.12502
lthumb -4.13833 21.7176
rfemur -50.9863 -10.1337 16.5119
rtibia 80.8757
rfoot -29.064 12.563
rtoes -27.8186
lfemur -54.064 1.66476 -22.0587
ltibia 86.2364
lfoot -19.0798 -3.36883
ltoes -26.4077
146
root 0.874047 16.6431 3.54379 -171.026 -0.219843 -180.93
lowerback 20.6022 1.29935 8.10264
upperback 13.4223 -0.0881348 -0.0630432
thorax 3.38102 -0.737461 -4.69509
lowerneck -20.0521 -0.839493 2.20135
upperneck 6.09155 -1.59314 -2.38019
head 4.99567 -0.973239 -1.26796
rclavicle 7.95139e-015 -1.51076e-014
rhumerus 78.19 -2.54051 -59.1104
rradius 17.969
rwrist 29.476
rhand -12.3899 11.544
rfingers 7.12502
rthumb 13.6812 -17.9863
lclavicle 7.95139e-015 -1.51076e-014
lhumerus 81.5937 -5.01602 63.737
lradius 11.2753
lwrist -41.9931
lhand -30.483 -8.1832
lfingers 7.12502
lthumb -3.78388 21.763
rfemur -49.3266 -9.95024 16.5081
rtibia 78.2819
rfoot -28.5083 12.2943
rtoes -27.3798
lfemur -52.3988 1.7167 -22.032
ltibia 83.639
lfoot -18.777 -3.54906
ltoes -25.7676
